<svg id="Layer_1" data-name="Layer 1" xmlns="http://www.w3.org/2000/svg" viewBox="0 0 755.23 213.6"><defs><style>.cls-1{fill:#811617;}.cls-2{fill:#9c9c9b;}.cls-3{fill:#9d9c9c;}.cls-4{fill:#9d9d9c;}.cls-5{fill:#9e9e9d;}.cls-6{fill:#e2f2f9;}.cls-7{fill:#dadedf;}.cls-8{fill:#cbb9b2;}.cls-9{fill:#b4c2c8;}.cls-10{fill:#e0cec6;}.cls-11{fill:#c8d8de;}.cls-12{fill:#ebdfd9;}.cls-13{fill:#eee4df;}.cls-14{fill:#964434;}.cls-15{fill:#acabaa;}.cls-16{fill:#dedede;}</style></defs><title>logo web</title><g id="Layer_2" data-name="Layer 2"><g id="Layer_3" data-name="Layer 3"><path class="cls-1" d="M178.69,207.09c0,4.8.07,9.6.07,14.39,0,9.44,0,18.87,0,28.49L144.34,270.8l34.43,21.39v2.15c0,13,0,26.08,0,39.11a3.54,3.54,0,0,1-2.25,3.65c-2.87,1.48-5.62,3.2-8.41,4.84-3.26,1.92-6.5,3.86-9.75,5.78q-9.9,5.82-19.8,11.64-10.08,6-20.14,11.95c-3.38,2-6.79,4-10.12,6.07a3.74,3.74,0,0,1-4.45.08c-2.13-1.34-4.31-2.59-6.48-3.85-3-1.71-6-3.38-8.92-5.1-3.51-2-7-4.13-10.5-6.18s-7-4-10.45-6c-3-1.72-6-3.47-9-5.17-3.64-2.07-7.32-4.08-11-6.16s-7-4.1-10.45-6.15c-1.26-.73-2.49-1.51-3.79-2.16a1.81,1.81,0,0,1-1.11-1.87c0-.48,0-1,0-1.44v-127c5.91-3.31,11.75-6.54,17.55-9.85,7-4,13.91-8.07,20.89-12.07,8.92-5.12,17.87-10.19,26.8-15.29,2.3-1.32,4.6-2.64,6.85-4a2.87,2.87,0,0,1,3.39,0c4.06,2.44,8.18,4.77,12.26,7.16q10.39,6.12,20.78,12.28l32.43,19.1,5.08,3Zm-108.24,104,36.62,23.47,35.18-22.86-35.16-19.63V262.89c0-3.68,0-7.36,0-11a2.49,2.49,0,0,1,1.47-2.69,32.5,32.5,0,0,0,3-1.87L139.8,229.4c.72-.46,1.43-1,2.4-1.59l-35.08-19.87c-.81.45-1.58.86-2.34,1.29-10.69,6.16-21.36,12.36-32.09,18.46a3.89,3.89,0,0,0-2.29,3.9c.08,25.68,0,51.36,0,77Z" transform="translate(-32.29 -164.55)"/><path class="cls-2" d="M221.62,315.08c0-.32-.07-.64-.07-1q0-37.8.06-75.6c0-4.41,2.28-7.88,5.53-10.6a18.27,18.27,0,0,1,12.15-4c8.56,0,17.13-.14,25.68,0,6.62.14,12.9,1.7,18.4,5.69A23.56,23.56,0,0,1,293,244.46c1.81,8.94-.88,16.49-7.24,22.85-.23.23-.44.47-.65.71a1.72,1.72,0,0,0-.18.41c.72.5,1.48,1,2.24,1.54a26.11,26.11,0,0,1,10.3,12.81c3.46,9.48-1.25,19.8-7.63,24.85a43,43,0,0,1-13.29,6.74,29,29,0,0,1-5.13.77l-2.93.39-.92.06-28.32,0c-5.76,0-11.52,0-17.27-.06Zm45.55-37.49a20.12,20.12,0,0,0-2.77-.41c-7.57,0-15.14,0-22.72,0a6.86,6.86,0,0,1,.43-1.09c2.72-4.41,5.48-8.8,8.16-13.23a2.72,2.72,0,0,1,2.69-1.52c3.66.07,7.34.06,11,0a16.18,16.18,0,0,0,3.53-.45,10.53,10.53,0,0,0-1.28-20.73,8.27,8.27,0,0,0-1.81-.4q-11.33,0-22.67,0a5,5,0,0,0-1.49.47q0,29,0,58a6.16,6.16,0,0,0,.27,1.29,6.31,6.31,0,0,0,.84.14c8.07,0,16.15.12,24.22-.06a18.68,18.68,0,0,0,10.83-3.33c5.7-4.12,5.69-11.47,0-15.53A17.22,17.22,0,0,0,267.17,277.59Z" transform="translate(-32.29 -164.55)"/><path class="cls-2" d="M357.9,273.36c8.08-.78,13.31-6.39,13.39-14.41a44.45,44.45,0,0,0-.21-6.93c-1.06-7.07-6.82-11.36-13.67-11.86a6.4,6.4,0,0,0-1.56-.4q-12,0-24,0a3.33,3.33,0,0,0-1.19.51c0,1-.09,1.92-.09,2.87,0,11.76,0,23.51,0,35.26,0,9.59.17,19.18.2,28.77,0,2.8-.17,5.59-.26,8.38l-18.24,0c0-1-.08-1.91-.08-2.87,0-24.46.16-48.93-.1-73.39-.06-6.18,5.35-12.68,10.85-14.32a26.08,26.08,0,0,1,7.77-1.11c7.91.08,15.83,0,23.74,0a40.38,40.38,0,0,1,19.71,4.82c8.65,4.83,14,12,15.42,22a39.47,39.47,0,0,1-1.08,17,27.39,27.39,0,0,1-8.8,13.37,36.08,36.08,0,0,1-12.26,6.76c1.71,2.74,4.19,4.66,6.08,7.05s4.07,4.49,6.09,6.75,4.09,4.68,6.16,7,4.08,4.48,6.13,6.72c-1,.06-1.91.15-2.87.15q-10,0-20.12,0c-2.24-2.36-4.52-4.7-6.71-7.11-1.6-1.76-3.05-3.65-4.62-5.43-2.95-3.33-5.95-6.63-8.91-10-.85-.95-1.62-2-2.42-2.95a6.75,6.75,0,0,0-1.7-.47c-4.2,0-8.39,0-12.59,0l6.33-10.42a10.34,10.34,0,0,0,1-1.62c1.25-3.38,3.69-4.22,7.09-3.92,3.17.27,6.37,0,9.56,0Z" transform="translate(-32.29 -164.55)"/><path class="cls-3" d="M432.69,316.9A35.84,35.84,0,0,1,407,301.2a38.91,38.91,0,0,1-5.38-13,20.87,20.87,0,0,1-.16-5c0-10.31-.05-20.62.16-30.92a20.93,20.93,0,0,1,1.71-6.82,34.66,34.66,0,0,1,8.42-12.81,34.29,34.29,0,0,1,17.88-9.16c1.33-.25,2.68-.37,4-.55h18.26a35.3,35.3,0,0,1,21.65,9.46,33.93,33.93,0,0,1,10.15,17.49,31,31,0,0,1,.84,6.85c.1,8.71.15,17.43,0,26.14a33,33,0,0,1-9.48,22.8,35.06,35.06,0,0,1-10.23,7.7,37.26,37.26,0,0,1-12,3.58,6.72,6.72,0,0,0-1.55-.37q-8.57,0-17.12,0A6.75,6.75,0,0,0,432.69,316.9Zm2.41-16.16a6.32,6.32,0,0,0,1.55.4q6.39,0,12.78,0a6.21,6.21,0,0,0,1.55-.4,14.25,14.25,0,0,0,6.28-2.17c6.16-3.91,8.77-9.8,8.93-16.81.19-8,.15-16,0-24a24.39,24.39,0,0,0-1.4-7.47c-2.31-6.53-8.5-12-16.45-11.61-3.91.18-7.84,0-11.76.05a15,15,0,0,0-10.2,4.09,19.71,19.71,0,0,0-6.49,14.94c-.1,8,0,16,0,24a20.17,20.17,0,0,0,1.5,7.71C423.94,295.65,428.24,299.77,435.1,300.74Z" transform="translate(-32.29 -164.55)"/><path class="cls-3" d="M702,316.9a35.84,35.84,0,0,1-25.67-15.7,38.91,38.91,0,0,1-5.38-13,20.87,20.87,0,0,1-.16-5c0-10.31,0-20.62.16-30.92a20.93,20.93,0,0,1,1.71-6.82,34.66,34.66,0,0,1,8.42-12.81,34.29,34.29,0,0,1,17.88-9.16c1.33-.25,2.68-.37,4-.55h18.26a35.3,35.3,0,0,1,21.65,9.46A33.93,33.93,0,0,1,753,249.83a31,31,0,0,1,.84,6.85c.1,8.71.15,17.43,0,26.14a33,33,0,0,1-9.48,22.8,35.06,35.06,0,0,1-10.23,7.7,37.26,37.26,0,0,1-12,3.58,6.72,6.72,0,0,0-1.55-.37q-8.57,0-17.12,0A6.75,6.75,0,0,0,702,316.9Zm2.41-16.16a6.32,6.32,0,0,0,1.55.4q6.39,0,12.78,0a6.21,6.21,0,0,0,1.55-.4,14.25,14.25,0,0,0,6.28-2.17c6.16-3.91,8.77-9.8,8.93-16.81.19-8,.15-16,0-24a24.39,24.39,0,0,0-1.4-7.47c-2.32-6.53-8.5-12-16.45-11.61-3.91.18-7.84,0-11.76.05a15,15,0,0,0-10.2,4.09,19.71,19.71,0,0,0-6.49,14.94c-.1,8,0,16,0,24a20.17,20.17,0,0,0,1.5,7.71C693.22,295.65,697.52,299.76,704.38,300.74Z" transform="translate(-32.29 -164.55)"/><path class="cls-4" d="M522,315.59c-6.75,0-13-2.1-19.13-4.67A19.07,19.07,0,0,1,495,305.5c5-3.89,9.84-7.64,14.64-11.46,1.22-1,1.82-.2,2.61.52a17.1,17.1,0,0,0,9.71,4.69l1.45.32,15.86,0,2-.32A16.67,16.67,0,0,0,552,294.34a12.16,12.16,0,0,0,2.35-4c.72-1.91-.68-3.35-1.68-4.71a11.18,11.18,0,0,0-5.26-3.55c-3.53-1.32-7.13-2.44-10.75-3.48-4.22-1.2-8.51-2.13-12.72-3.36-6.51-1.91-12.9-4.09-18.56-8a20.13,20.13,0,0,1-8.5-11.58,22.15,22.15,0,0,1-.37-4c-.54-6.86,1.94-12.42,6.75-17.33,6-6.12,13.4-8.76,21.59-9.88l22.12,0c9,.78,17.33,3.48,24.76,9.53l-16.2,12.59a18.64,18.64,0,0,0-10.09-6.2,8.4,8.4,0,0,0-2-.49c-4.59-.05-9.17,0-13.76,0a11.24,11.24,0,0,0-2,.41c-1.83.48-3.69.85-5.47,1.46a10.83,10.83,0,0,0-6,4.48c-2.39,3.81-1.33,6.7,1.7,8.9a28.71,28.71,0,0,0,9.15,3.92c7.39,2.11,14.85,4,22.2,6.28a48.14,48.14,0,0,1,15.51,7.74,20.41,20.41,0,0,1,4.93,27.35,31.7,31.7,0,0,1-10.13,9.63c-4.62,3-9.85,4.24-15.07,5.56a15.34,15.34,0,0,1-3.33.11Z" transform="translate(-32.29 -164.55)"/><path class="cls-4" d="M616.09,315.61a31.07,31.07,0,0,1-13.4-3.43c-10.39-5.24-16.42-13.87-19.14-25a20,20,0,0,1-.14-4.46c0-9-.13-18.05-.07-27.07a27.75,27.75,0,0,1,2.76-11.11,36,36,0,0,1,5.95-9.14,32.55,32.55,0,0,1,12.08-8.57,40.11,40.11,0,0,1,16.54-3c3.51.09,7,0,10.54,0a54.37,54.37,0,0,1,21.23,4.78,70.29,70.29,0,0,1,6.27,3.39,20,20,0,0,1,2.25,1.86l-16.09,12.37c-1.53-1.22-2.83-2.4-4.26-3.38a11.53,11.53,0,0,0-6.12-2.32,3.13,3.13,0,0,1-1.07-.47,6.89,6.89,0,0,0-1.56-.4q-7,0-14,0a7.77,7.77,0,0,0-1.79.43c-2.33.74-4.74,1.26-6.72,2.85a18.31,18.31,0,0,0-7.17,12.48,80.26,80.26,0,0,0-.39,8.36c0,5.35-.07,10.71,0,16.06.06,4.53.89,8.9,3.72,12.6,2.67,3.49,5.85,6.3,10.51,6.75l1.49.32h14.9l1.5-.32a16.58,16.58,0,0,0,9.35-4.76c1.31-1.26,1.65-1.29,3-.22,4.78,3.67,9.53,7.37,14.44,11.17a12.57,12.57,0,0,1-4.17,3.44,51.83,51.83,0,0,1-13.89,5.5,31.28,31.28,0,0,1-8.84,1.2Z" transform="translate(-32.29 -164.55)"/><path class="cls-5" d="M774,322.31c-5.18-.08-10.52-5.87-10.11-11,.14-1.8,0-3.74.67-5.36a11,11,0,0,1,9.92-7.35h2.4a11.89,11.89,0,0,1,5.48,21.6,11.23,11.23,0,0,1-5,2.08ZM773.13,312c2.07-.61,3.45-.24,4.46,1.54.39.68.71,1.76,2.23,1.93-.5-.87-.83-1.46-1.17-2s-.75-1.18-1.07-1.69a14.52,14.52,0,0,0,1.56-1.68,3.12,3.12,0,0,0-1.84-4.91,9.73,9.73,0,0,0-5.08.16c-.51,4.37-.31,8.84.6,10.21C772.93,314.17,773,313.11,773.13,312Z" transform="translate(-32.29 -164.55)"/><path class="cls-6" d="M222,315.5c5.75,0,11.51.05,17.27.06l28.32,0a12.15,12.15,0,0,1-2.26.43q-20.79,0-41.59,0a9.78,9.78,0,0,1-2.21-.5h.23Z" transform="translate(-32.29 -164.55)"/><path class="cls-7" d="M330.63,240.26a3.33,3.33,0,0,1,1.19-.51q12,0,24,0a6.4,6.4,0,0,1,1.56.4l-23.44.05C332.86,240.21,331.74,240.24,330.63,240.26Z" transform="translate(-32.29 -164.55)"/><path class="cls-6" d="M368.88,315.58q10.06,0,20.12,0c1,0,1.91-.09,2.87-.15-.47.21-.93.61-1.4.61q-10.14.06-20.29,0A4.08,4.08,0,0,1,368.88,315.58Z" transform="translate(-32.29 -164.55)"/><path class="cls-8" d="M547,224.32l-22.12,0a9.61,9.61,0,0,1,2-.44q9.17-.06,18.33,0A7.64,7.64,0,0,1,547,224.32Z" transform="translate(-32.29 -164.55)"/><path class="cls-9" d="M432.69,316.9a6.75,6.75,0,0,1,1.55-.38q8.55,0,17.12,0a6.72,6.72,0,0,1,1.55.37Z" transform="translate(-32.29 -164.55)"/><path class="cls-9" d="M702,316.9a6.75,6.75,0,0,1,1.55-.38q8.55,0,17.12,0a6.72,6.72,0,0,1,1.55.37Z" transform="translate(-32.29 -164.55)"/><path class="cls-6" d="M522,315.59h19.2a7.21,7.21,0,0,1-1.76.44q-7.85,0-15.67,0A7.61,7.61,0,0,1,522,315.59Z" transform="translate(-32.29 -164.55)"/><path class="cls-10" d="M721.21,222.88H703a5.83,5.83,0,0,1,1.53-.42q7.6-.06,15.19,0A6.19,6.19,0,0,1,721.21,222.88Z" transform="translate(-32.29 -164.55)"/><path class="cls-10" d="M451.93,222.88H433.67a5.83,5.83,0,0,1,1.53-.42q7.6-.06,15.19,0A6.19,6.19,0,0,1,451.93,222.88Z" transform="translate(-32.29 -164.55)"/><path class="cls-6" d="M312.24,315.56l18.24,0a5.45,5.45,0,0,1-1.5.48q-7.62,0-15.23,0A5.56,5.56,0,0,1,312.24,315.56Z" transform="translate(-32.29 -164.55)"/><path class="cls-11" d="M527.71,240.15a11.24,11.24,0,0,1,2-.41c4.59,0,9.17,0,13.76,0a8.4,8.4,0,0,1,2,.49Z" transform="translate(-32.29 -164.55)"/><path class="cls-6" d="M616.09,315.61h17.75a6.43,6.43,0,0,1-1.56.41q-7.32,0-14.64,0A6.35,6.35,0,0,1,616.09,315.61Z" transform="translate(-32.29 -164.55)"/><path class="cls-11" d="M616.06,240.18a7.77,7.77,0,0,1,1.79-.43q7-.06,14,0a6.89,6.89,0,0,1,1.56.4Z" transform="translate(-32.29 -164.55)"/><path class="cls-6" d="M331.93,289.66c4.2,0,8.39,0,12.59,0a6.75,6.75,0,0,1,1.7.47c-4,0-8,0-12.07,0A12.46,12.46,0,0,1,331.93,289.66Z" transform="translate(-32.29 -164.55)"/><path class="cls-6" d="M774,322.31h3.36A2.92,2.92,0,0,1,774,322.31Z" transform="translate(-32.29 -164.55)"/><path class="cls-7" d="M268.52,315.53l2.93-.39Z" transform="translate(-32.29 -164.55)"/><path class="cls-12" d="M776.88,298.63h0Z" transform="translate(-32.29 -164.55)"/><path class="cls-12" d="M357.9,273.36l-2,.31Z" transform="translate(-32.29 -164.55)"/><path class="cls-13" d="M541.26,299.28l-2,.32Z" transform="translate(-32.29 -164.55)"/><path class="cls-13" d="M523.43,299.57l-1.45-.32Z" transform="translate(-32.29 -164.55)"/><path class="cls-13" d="M617.51,299.6l-1.49-.32Z" transform="translate(-32.29 -164.55)"/><path class="cls-13" d="M633.91,299.28l-1.5.32Z" transform="translate(-32.29 -164.55)"/><path class="cls-14" d="M178.69,207.09l-.37-.49Z" transform="translate(-32.29 -164.55)"/><path class="cls-15" d="M222,315.5l-.24,0h-.23a.75.75,0,0,1,.08-.44Z" transform="translate(-32.29 -164.55)"/><path class="cls-11" d="M266.22,240.14l-26,.07a5,5,0,0,1,1.49-.47q11.34,0,22.67,0A8.27,8.27,0,0,1,266.22,240.14Z" transform="translate(-32.29 -164.55)"/><path class="cls-11" d="M267.17,277.59q-12,0-24,0a5.62,5.62,0,0,1-1.52-.46c7.58,0,15.15,0,22.72,0A20.12,20.12,0,0,1,267.17,277.59Z" transform="translate(-32.29 -164.55)"/><path class="cls-8" d="M435.1,300.74H451a6.21,6.21,0,0,1-1.55.4q-6.39,0-12.78,0A6.32,6.32,0,0,1,435.1,300.74Z" transform="translate(-32.29 -164.55)"/><path class="cls-8" d="M704.38,300.74h15.88a6.21,6.21,0,0,1-1.55.4q-6.39,0-12.78,0A6.32,6.32,0,0,1,704.38,300.74Z" transform="translate(-32.29 -164.55)"/><path class="cls-16" d="M773.13,312c-.1,1.15-.2,2.21-.31,3.52-.91-1.37-1.11-5.84-.6-10.21a9.73,9.73,0,0,1,5.08-.16,3.12,3.12,0,0,1,1.84,4.91,14.52,14.52,0,0,1-1.56,1.68c.32.51.7,1.09,1.07,1.69s.67,1.17,1.17,2c-1.52-.17-1.84-1.25-2.23-1.93C776.58,311.72,775.2,311.35,773.13,312Zm0-1.34a24.67,24.67,0,0,0,3.58,0,2.53,2.53,0,0,0,2-2.58,2.61,2.61,0,0,0-2.29-2.06c-1.06-.08-2.14,0-3.3,0Z" transform="translate(-32.29 -164.55)"/><path class="cls-5" d="M773.13,310.62v-4.69c1.16,0,2.24-.06,3.3,0a2.61,2.61,0,0,1,2.29,2.06,2.53,2.53,0,0,1-2,2.58A24.67,24.67,0,0,1,773.13,310.62Z" transform="translate(-32.29 -164.55)"/></g></g></svg>